<svg xmlns="http://www.w3.org/2000/svg" viewBox="0 0 500 500" width="500" height="500" fill="none">
  <!-- Klario engine-turned guilloche rosette. Static (no animation) for print/PDF.
       Recolour by changing stroke; thicken stroke-width for smaller sizes. -->
 <g stroke="#c19a6b" stroke-width="0.4" stroke-opacity="0.75">
  <ellipse cx="250" cy="140" rx="158" ry="64" transform="rotate(0.00 250 250)"/>
  <ellipse cx="250" cy="140" rx="158" ry="64" transform="rotate(4.50 250 250)"/>
  <ellipse cx="250" cy="140" rx="158" ry="64" transform="rotate(9.00 250 250)"/>
  <ellipse cx="250" cy="140" rx="158" ry="64" transform="rotate(13.50 250 250)"/>
  <ellipse cx="250" cy="140" rx="158" ry="64" transform="rotate(18.00 250 250)"/>
  <ellipse cx="250" cy="140" rx="158" ry="64" transform="rotate(22.50 250 250)"/>
  <ellipse cx="250" cy="140" rx="158" ry="64" transform="rotate(27.00 250 250)"/>
  <ellipse cx="250" cy="140" rx="158" ry="64" transform="rotate(31.50 250 250)"/>
  <ellipse cx="250" cy="140" rx="158" ry="64" transform="rotate(36.00 250 250)"/>
  <ellipse cx="250" cy="140" rx="158" ry="64" transform="rotate(40.50 250 250)"/>
  <ellipse cx="250" cy="140" rx="158" ry="64" transform="rotate(45.00 250 250)"/>
  <ellipse cx="250" cy="140" rx="158" ry="64" transform="rotate(49.50 250 250)"/>
  <ellipse cx="250" cy="140" rx="158" ry="64" transform="rotate(54.00 250 250)"/>
  <ellipse cx="250" cy="140" rx="158" ry="64" transform="rotate(58.50 250 250)"/>
  <ellipse cx="250" cy="140" rx="158" ry="64" transform="rotate(63.00 250 250)"/>
  <ellipse cx="250" cy="140" rx="158" ry="64" transform="rotate(67.50 250 250)"/>
  <ellipse cx="250" cy="140" rx="158" ry="64" transform="rotate(72.00 250 250)"/>
  <ellipse cx="250" cy="140" rx="158" ry="64" transform="rotate(76.50 250 250)"/>
  <ellipse cx="250" cy="140" rx="158" ry="64" transform="rotate(81.00 250 250)"/>
  <ellipse cx="250" cy="140" rx="158" ry="64" transform="rotate(85.50 250 250)"/>
  <ellipse cx="250" cy="140" rx="158" ry="64" transform="rotate(90.00 250 250)"/>
  <ellipse cx="250" cy="140" rx="158" ry="64" transform="rotate(94.50 250 250)"/>
  <ellipse cx="250" cy="140" rx="158" ry="64" transform="rotate(99.00 250 250)"/>
  <ellipse cx="250" cy="140" rx="158" ry="64" transform="rotate(103.50 250 250)"/>
  <ellipse cx="250" cy="140" rx="158" ry="64" transform="rotate(108.00 250 250)"/>
  <ellipse cx="250" cy="140" rx="158" ry="64" transform="rotate(112.50 250 250)"/>
  <ellipse cx="250" cy="140" rx="158" ry="64" transform="rotate(117.00 250 250)"/>
  <ellipse cx="250" cy="140" rx="158" ry="64" transform="rotate(121.50 250 250)"/>
  <ellipse cx="250" cy="140" rx="158" ry="64" transform="rotate(126.00 250 250)"/>
  <ellipse cx="250" cy="140" rx="158" ry="64" transform="rotate(130.50 250 250)"/>
  <ellipse cx="250" cy="140" rx="158" ry="64" transform="rotate(135.00 250 250)"/>
  <ellipse cx="250" cy="140" rx="158" ry="64" transform="rotate(139.50 250 250)"/>
  <ellipse cx="250" cy="140" rx="158" ry="64" transform="rotate(144.00 250 250)"/>
  <ellipse cx="250" cy="140" rx="158" ry="64" transform="rotate(148.50 250 250)"/>
  <ellipse cx="250" cy="140" rx="158" ry="64" transform="rotate(153.00 250 250)"/>
  <ellipse cx="250" cy="140" rx="158" ry="64" transform="rotate(157.50 250 250)"/>
  <ellipse cx="250" cy="140" rx="158" ry="64" transform="rotate(162.00 250 250)"/>
  <ellipse cx="250" cy="140" rx="158" ry="64" transform="rotate(166.50 250 250)"/>
  <ellipse cx="250" cy="140" rx="158" ry="64" transform="rotate(171.00 250 250)"/>
  <ellipse cx="250" cy="140" rx="158" ry="64" transform="rotate(175.50 250 250)"/>
  <ellipse cx="250" cy="140" rx="158" ry="64" transform="rotate(180.00 250 250)"/>
  <ellipse cx="250" cy="140" rx="158" ry="64" transform="rotate(184.50 250 250)"/>
  <ellipse cx="250" cy="140" rx="158" ry="64" transform="rotate(189.00 250 250)"/>
  <ellipse cx="250" cy="140" rx="158" ry="64" transform="rotate(193.50 250 250)"/>
  <ellipse cx="250" cy="140" rx="158" ry="64" transform="rotate(198.00 250 250)"/>
  <ellipse cx="250" cy="140" rx="158" ry="64" transform="rotate(202.50 250 250)"/>
  <ellipse cx="250" cy="140" rx="158" ry="64" transform="rotate(207.00 250 250)"/>
  <ellipse cx="250" cy="140" rx="158" ry="64" transform="rotate(211.50 250 250)"/>
  <ellipse cx="250" cy="140" rx="158" ry="64" transform="rotate(216.00 250 250)"/>
  <ellipse cx="250" cy="140" rx="158" ry="64" transform="rotate(220.50 250 250)"/>
  <ellipse cx="250" cy="140" rx="158" ry="64" transform="rotate(225.00 250 250)"/>
  <ellipse cx="250" cy="140" rx="158" ry="64" transform="rotate(229.50 250 250)"/>
  <ellipse cx="250" cy="140" rx="158" ry="64" transform="rotate(234.00 250 250)"/>
  <ellipse cx="250" cy="140" rx="158" ry="64" transform="rotate(238.50 250 250)"/>
  <ellipse cx="250" cy="140" rx="158" ry="64" transform="rotate(243.00 250 250)"/>
  <ellipse cx="250" cy="140" rx="158" ry="64" transform="rotate(247.50 250 250)"/>
  <ellipse cx="250" cy="140" rx="158" ry="64" transform="rotate(252.00 250 250)"/>
  <ellipse cx="250" cy="140" rx="158" ry="64" transform="rotate(256.50 250 250)"/>
  <ellipse cx="250" cy="140" rx="158" ry="64" transform="rotate(261.00 250 250)"/>
  <ellipse cx="250" cy="140" rx="158" ry="64" transform="rotate(265.50 250 250)"/>
  <ellipse cx="250" cy="140" rx="158" ry="64" transform="rotate(270.00 250 250)"/>
  <ellipse cx="250" cy="140" rx="158" ry="64" transform="rotate(274.50 250 250)"/>
  <ellipse cx="250" cy="140" rx="158" ry="64" transform="rotate(279.00 250 250)"/>
  <ellipse cx="250" cy="140" rx="158" ry="64" transform="rotate(283.50 250 250)"/>
  <ellipse cx="250" cy="140" rx="158" ry="64" transform="rotate(288.00 250 250)"/>
  <ellipse cx="250" cy="140" rx="158" ry="64" transform="rotate(292.50 250 250)"/>
  <ellipse cx="250" cy="140" rx="158" ry="64" transform="rotate(297.00 250 250)"/>
  <ellipse cx="250" cy="140" rx="158" ry="64" transform="rotate(301.50 250 250)"/>
  <ellipse cx="250" cy="140" rx="158" ry="64" transform="rotate(306.00 250 250)"/>
  <ellipse cx="250" cy="140" rx="158" ry="64" transform="rotate(310.50 250 250)"/>
  <ellipse cx="250" cy="140" rx="158" ry="64" transform="rotate(315.00 250 250)"/>
  <ellipse cx="250" cy="140" rx="158" ry="64" transform="rotate(319.50 250 250)"/>
  <ellipse cx="250" cy="140" rx="158" ry="64" transform="rotate(324.00 250 250)"/>
  <ellipse cx="250" cy="140" rx="158" ry="64" transform="rotate(328.50 250 250)"/>
  <ellipse cx="250" cy="140" rx="158" ry="64" transform="rotate(333.00 250 250)"/>
  <ellipse cx="250" cy="140" rx="158" ry="64" transform="rotate(337.50 250 250)"/>
  <ellipse cx="250" cy="140" rx="158" ry="64" transform="rotate(342.00 250 250)"/>
  <ellipse cx="250" cy="140" rx="158" ry="64" transform="rotate(346.50 250 250)"/>
  <ellipse cx="250" cy="140" rx="158" ry="64" transform="rotate(351.00 250 250)"/>
  <ellipse cx="250" cy="140" rx="158" ry="64" transform="rotate(355.50 250 250)"/>
 </g>
</svg>
